solid OpenSCAD_Model
  facet normal -1 0 0
    outer loop
      vertex 3 -50 -0.0999994
      vertex 3 50 0.0999994
      vertex 3 50 -0.0999994
    endloop
  endfacet
  facet normal -1 -0 0
    outer loop
      vertex 3 50 0.0999994
      vertex 3 -50 -0.0999994
      vertex 3 -50 0.0999994
    endloop
  endfacet
  facet normal -0 0 1
    outer loop
      vertex 3 50 0.0999994
      vertex 5 -50 0.0999994
      vertex 5 50 0.0999994
    endloop
  endfacet
  facet normal 0 0 1
    outer loop
      vertex 5 -50 0.0999994
      vertex 3 50 0.0999994
      vertex 3 -50 0.0999994
    endloop
  endfacet
  facet normal 1 -0 0
    outer loop
      vertex 5 -50 0.0999994
      vertex 5 50 -0.0999994
      vertex 5 50 0.0999994
    endloop
  endfacet
  facet normal 1 0 0
    outer loop
      vertex 5 50 -0.0999994
      vertex 5 -50 0.0999994
      vertex 5 -50 -0.0999994
    endloop
  endfacet
  facet normal 0 1 -0
    outer loop
      vertex 5 50 -0.0999994
      vertex 3 50 0.0999994
      vertex 5 50 0.0999994
    endloop
  endfacet
  facet normal 0 1 0
    outer loop
      vertex 3 50 0.0999994
      vertex 5 50 -0.0999994
      vertex 3 50 -0.0999994
    endloop
  endfacet
  facet normal 0 0 -1
    outer loop
      vertex 3 -50 -0.0999994
      vertex 5 50 -0.0999994
      vertex 5 -50 -0.0999994
    endloop
  endfacet
  facet normal -0 0 -1
    outer loop
      vertex 5 50 -0.0999994
      vertex 3 -50 -0.0999994
      vertex 3 50 -0.0999994
    endloop
  endfacet
  facet normal 0 -1 0
    outer loop
      vertex 3 -50 -0.0999994
      vertex 5 -50 0.0999994
      vertex 3 -50 0.0999994
    endloop
  endfacet
  facet normal 0 -1 -0
    outer loop
      vertex 5 -50 0.0999994
      vertex 3 -50 -0.0999994
      vertex 5 -50 -0.0999994
    endloop
  endfacet
  facet normal -1 0 0
    outer loop
      vertex 7 -50 -0.0999994
      vertex 7 50 0.0999994
      vertex 7 50 -0.0999994
    endloop
  endfacet
  facet normal -1 -0 0
    outer loop
      vertex 7 50 0.0999994
      vertex 7 -50 -0.0999994
      vertex 7 -50 0.0999994
    endloop
  endfacet
  facet normal -0 0 1
    outer loop
      vertex 7 50 0.0999994
      vertex 9 -50 0.0999994
      vertex 9 50 0.0999994
    endloop
  endfacet
  facet normal 0 0 1
    outer loop
      vertex 9 -50 0.0999994
      vertex 7 50 0.0999994
      vertex 7 -50 0.0999994
    endloop
  endfacet
  facet normal 1 -0 0
    outer loop
      vertex 9 -50 0.0999994
      vertex 9 50 -0.0999994
      vertex 9 50 0.0999994
    endloop
  endfacet
  facet normal 1 0 0
    outer loop
      vertex 9 50 -0.0999994
      vertex 9 -50 0.0999994
      vertex 9 -50 -0.0999994
    endloop
  endfacet
  facet normal 0 1 -0
    outer loop
      vertex 9 50 -0.0999994
      vertex 7 50 0.0999994
      vertex 9 50 0.0999994
    endloop
  endfacet
  facet normal 0 1 0
    outer loop
      vertex 7 50 0.0999994
      vertex 9 50 -0.0999994
      vertex 7 50 -0.0999994
    endloop
  endfacet
  facet normal 0 0 -1
    outer loop
      vertex 7 -50 -0.0999994
      vertex 9 50 -0.0999994
      vertex 9 -50 -0.0999994
    endloop
  endfacet
  facet normal -0 0 -1
    outer loop
      vertex 9 50 -0.0999994
      vertex 7 -50 -0.0999994
      vertex 7 50 -0.0999994
    endloop
  endfacet
  facet normal 0 -1 0
    outer loop
      vertex 7 -50 -0.0999994
      vertex 9 -50 0.0999994
      vertex 7 -50 0.0999994
    endloop
  endfacet
  facet normal 0 -1 -0
    outer loop
      vertex 9 -50 0.0999994
      vertex 7 -50 -0.0999994
      vertex 9 -50 -0.0999994
    endloop
  endfacet
  facet normal -1 0 0
    outer loop
      vertex 11 -50 -0.0999994
      vertex 11 50 0.0999994
      vertex 11 50 -0.0999994
    endloop
  endfacet
  facet normal -1 -0 0
    outer loop
      vertex 11 50 0.0999994
      vertex 11 -50 -0.0999994
      vertex 11 -50 0.0999994
    endloop
  endfacet
  facet normal -0 0 1
    outer loop
      vertex 11 50 0.0999994
      vertex 13 -50 0.0999994
      vertex 13 50 0.0999994
    endloop
  endfacet
  facet normal 0 0 1
    outer loop
      vertex 13 -50 0.0999994
      vertex 11 50 0.0999994
      vertex 11 -50 0.0999994
    endloop
  endfacet
  facet normal 1 -0 0
    outer loop
      vertex 13 -50 0.0999994
      vertex 13 50 -0.0999994
      vertex 13 50 0.0999994
    endloop
  endfacet
  facet normal 1 0 0
    outer loop
      vertex 13 50 -0.0999994
      vertex 13 -50 0.0999994
      vertex 13 -50 -0.0999994
    endloop
  endfacet
  facet normal 0 0 -1
    outer loop
      vertex 11 -50 -0.0999994
      vertex 13 50 -0.0999994
      vertex 13 -50 -0.0999994
    endloop
  endfacet
  facet normal -0 0 -1
    outer loop
      vertex 13 50 -0.0999994
      vertex 11 -50 -0.0999994
      vertex 11 50 -0.0999994
    endloop
  endfacet
  facet normal 0 -1 0
    outer loop
      vertex 11 -50 -0.0999994
      vertex 13 -50 0.0999994
      vertex 11 -50 0.0999994
    endloop
  endfacet
  facet normal 0 -1 -0
    outer loop
      vertex 13 -50 0.0999994
      vertex 11 -50 -0.0999994
      vertex 13 -50 -0.0999994
    endloop
  endfacet
  facet normal 0 1 -0
    outer loop
      vertex 13 50 -0.0999994
      vertex 11 50 0.0999994
      vertex 13 50 0.0999994
    endloop
  endfacet
  facet normal 0 1 0
    outer loop
      vertex 11 50 0.0999994
      vertex 13 50 -0.0999994
      vertex 11 50 -0.0999994
    endloop
  endfacet
  facet normal -1 0 0
    outer loop
      vertex 15 -50 -0.0999994
      vertex 15 50 0.0999994
      vertex 15 50 -0.0999994
    endloop
  endfacet
  facet normal -1 -0 0
    outer loop
      vertex 15 50 0.0999994
      vertex 15 -50 -0.0999994
      vertex 15 -50 0.0999994
    endloop
  endfacet
  facet normal -0 0 1
    outer loop
      vertex 15 50 0.0999994
      vertex 17 -50 0.0999994
      vertex 17 50 0.0999994
    endloop
  endfacet
  facet normal 0 0 1
    outer loop
      vertex 17 -50 0.0999994
      vertex 15 50 0.0999994
      vertex 15 -50 0.0999994
    endloop
  endfacet
  facet normal 1 -0 0
    outer loop
      vertex 17 -50 0.0999994
      vertex 17 50 -0.0999994
      vertex 17 50 0.0999994
    endloop
  endfacet
  facet normal 1 0 0
    outer loop
      vertex 17 50 -0.0999994
      vertex 17 -50 0.0999994
      vertex 17 -50 -0.0999994
    endloop
  endfacet
  facet normal 0 0 -1
    outer loop
      vertex 15 -50 -0.0999994
      vertex 17 50 -0.0999994
      vertex 17 -50 -0.0999994
    endloop
  endfacet
  facet normal -0 0 -1
    outer loop
      vertex 17 50 -0.0999994
      vertex 15 -50 -0.0999994
      vertex 15 50 -0.0999994
    endloop
  endfacet
  facet normal 0 -1 0
    outer loop
      vertex 15 -50 -0.0999994
      vertex 17 -50 0.0999994
      vertex 15 -50 0.0999994
    endloop
  endfacet
  facet normal 0 -1 -0
    outer loop
      vertex 17 -50 0.0999994
      vertex 15 -50 -0.0999994
      vertex 17 -50 -0.0999994
    endloop
  endfacet
  facet normal 0 1 -0
    outer loop
      vertex 17 50 -0.0999994
      vertex 15 50 0.0999994
      vertex 17 50 0.0999994
    endloop
  endfacet
  facet normal 0 1 0
    outer loop
      vertex 15 50 0.0999994
      vertex 17 50 -0.0999994
      vertex 15 50 -0.0999994
    endloop
  endfacet
  facet normal -1 0 0
    outer loop
      vertex 19 -50 -0.0999994
      vertex 19 50 0.0999994
      vertex 19 50 -0.0999994
    endloop
  endfacet
  facet normal -1 -0 0
    outer loop
      vertex 19 50 0.0999994
      vertex 19 -50 -0.0999994
      vertex 19 -50 0.0999994
    endloop
  endfacet
  facet normal -0 0 1
    outer loop
      vertex 19 50 0.0999994
      vertex 21 -50 0.0999994
      vertex 21 50 0.0999994
    endloop
  endfacet
  facet normal 0 0 1
    outer loop
      vertex 21 -50 0.0999994
      vertex 19 50 0.0999994
      vertex 19 -50 0.0999994
    endloop
  endfacet
  facet normal 1 -0 0
    outer loop
      vertex 21 -50 0.0999994
      vertex 21 50 -0.0999994
      vertex 21 50 0.0999994
    endloop
  endfacet
  facet normal 1 0 0
    outer loop
      vertex 21 50 -0.0999994
      vertex 21 -50 0.0999994
      vertex 21 -50 -0.0999994
    endloop
  endfacet
  facet normal 0 0 -1
    outer loop
      vertex 19 -50 -0.0999994
      vertex 21 50 -0.0999994
      vertex 21 -50 -0.0999994
    endloop
  endfacet
  facet normal -0 0 -1
    outer loop
      vertex 21 50 -0.0999994
      vertex 19 -50 -0.0999994
      vertex 19 50 -0.0999994
    endloop
  endfacet
  facet normal 0 -1 0
    outer loop
      vertex 19 -50 -0.0999994
      vertex 21 -50 0.0999994
      vertex 19 -50 0.0999994
    endloop
  endfacet
  facet normal 0 -1 -0
    outer loop
      vertex 21 -50 0.0999994
      vertex 19 -50 -0.0999994
      vertex 21 -50 -0.0999994
    endloop
  endfacet
  facet normal 0 1 -0
    outer loop
      vertex 21 50 -0.0999994
      vertex 19 50 0.0999994
      vertex 21 50 0.0999994
    endloop
  endfacet
  facet normal 0 1 0
    outer loop
      vertex 19 50 0.0999994
      vertex 21 50 -0.0999994
      vertex 19 50 -0.0999994
    endloop
  endfacet
  facet normal -1 0 0
    outer loop
      vertex 23 -50 -0.0999994
      vertex 23 50 0.0999994
      vertex 23 50 -0.0999994
    endloop
  endfacet
  facet normal -1 -0 0
    outer loop
      vertex 23 50 0.0999994
      vertex 23 -50 -0.0999994
      vertex 23 -50 0.0999994
    endloop
  endfacet
  facet normal -0 0 1
    outer loop
      vertex 23 50 0.0999994
      vertex 25 -50 0.0999994
      vertex 25 50 0.0999994
    endloop
  endfacet
  facet normal 0 0 1
    outer loop
      vertex 25 -50 0.0999994
      vertex 23 50 0.0999994
      vertex 23 -50 0.0999994
    endloop
  endfacet
  facet normal 1 -0 0
    outer loop
      vertex 25 -50 0.0999994
      vertex 25 50 -0.0999994
      vertex 25 50 0.0999994
    endloop
  endfacet
  facet normal 1 0 0
    outer loop
      vertex 25 50 -0.0999994
      vertex 25 -50 0.0999994
      vertex 25 -50 -0.0999994
    endloop
  endfacet
  facet normal 0 0 -1
    outer loop
      vertex 23 -50 -0.0999994
      vertex 25 50 -0.0999994
      vertex 25 -50 -0.0999994
    endloop
  endfacet
  facet normal -0 0 -1
    outer loop
      vertex 25 50 -0.0999994
      vertex 23 -50 -0.0999994
      vertex 23 50 -0.0999994
    endloop
  endfacet
  facet normal 0 -1 0
    outer loop
      vertex 23 -50 -0.0999994
      vertex 25 -50 0.0999994
      vertex 23 -50 0.0999994
    endloop
  endfacet
  facet normal 0 -1 -0
    outer loop
      vertex 25 -50 0.0999994
      vertex 23 -50 -0.0999994
      vertex 25 -50 -0.0999994
    endloop
  endfacet
  facet normal 0 1 -0
    outer loop
      vertex 25 50 -0.0999994
      vertex 23 50 0.0999994
      vertex 25 50 0.0999994
    endloop
  endfacet
  facet normal 0 1 0
    outer loop
      vertex 23 50 0.0999994
      vertex 25 50 -0.0999994
      vertex 23 50 -0.0999994
    endloop
  endfacet
  facet normal -1 0 0
    outer loop
      vertex 27 -50 -0.0999994
      vertex 27 50 0.0999994
      vertex 27 50 -0.0999994
    endloop
  endfacet
  facet normal -1 -0 0
    outer loop
      vertex 27 50 0.0999994
      vertex 27 -50 -0.0999994
      vertex 27 -50 0.0999994
    endloop
  endfacet
  facet normal -0 0 1
    outer loop
      vertex 27 50 0.0999994
      vertex 29 -50 0.0999994
      vertex 29 50 0.0999994
    endloop
  endfacet
  facet normal 0 0 1
    outer loop
      vertex 29 -50 0.0999994
      vertex 27 50 0.0999994
      vertex 27 -50 0.0999994
    endloop
  endfacet
  facet normal 1 -0 0
    outer loop
      vertex 29 -50 0.0999994
      vertex 29 50 -0.0999994
      vertex 29 50 0.0999994
    endloop
  endfacet
  facet normal 1 0 0
    outer loop
      vertex 29 50 -0.0999994
      vertex 29 -50 0.0999994
      vertex 29 -50 -0.0999994
    endloop
  endfacet
  facet normal 0 0 -1
    outer loop
      vertex 27 -50 -0.0999994
      vertex 29 50 -0.0999994
      vertex 29 -50 -0.0999994
    endloop
  endfacet
  facet normal -0 0 -1
    outer loop
      vertex 29 50 -0.0999994
      vertex 27 -50 -0.0999994
      vertex 27 50 -0.0999994
    endloop
  endfacet
  facet normal 0 -1 0
    outer loop
      vertex 27 -50 -0.0999994
      vertex 29 -50 0.0999994
      vertex 27 -50 0.0999994
    endloop
  endfacet
  facet normal 0 -1 -0
    outer loop
      vertex 29 -50 0.0999994
      vertex 27 -50 -0.0999994
      vertex 29 -50 -0.0999994
    endloop
  endfacet
  facet normal 0 1 -0
    outer loop
      vertex 29 50 -0.0999994
      vertex 27 50 0.0999994
      vertex 29 50 0.0999994
    endloop
  endfacet
  facet normal 0 1 0
    outer loop
      vertex 27 50 0.0999994
      vertex 29 50 -0.0999994
      vertex 27 50 -0.0999994
    endloop
  endfacet
  facet normal -1 0 0
    outer loop
      vertex 31 -50 -0.0999994
      vertex 31 50 0.0999994
      vertex 31 50 -0.0999994
    endloop
  endfacet
  facet normal -1 -0 0
    outer loop
      vertex 31 50 0.0999994
      vertex 31 -50 -0.0999994
      vertex 31 -50 0.0999994
    endloop
  endfacet
  facet normal -0 0 1
    outer loop
      vertex 31 50 0.0999994
      vertex 33 -50 0.0999994
      vertex 33 50 0.0999994
    endloop
  endfacet
  facet normal 0 0 1
    outer loop
      vertex 33 -50 0.0999994
      vertex 31 50 0.0999994
      vertex 31 -50 0.0999994
    endloop
  endfacet
  facet normal 1 -0 0
    outer loop
      vertex 33 -50 0.0999994
      vertex 33 50 -0.0999994
      vertex 33 50 0.0999994
    endloop
  endfacet
  facet normal 1 0 0
    outer loop
      vertex 33 50 -0.0999994
      vertex 33 -50 0.0999994
      vertex 33 -50 -0.0999994
    endloop
  endfacet
  facet normal 0 1 -0
    outer loop
      vertex 33 50 -0.0999994
      vertex 31 50 0.0999994
      vertex 33 50 0.0999994
    endloop
  endfacet
  facet normal 0 1 0
    outer loop
      vertex 31 50 0.0999994
      vertex 33 50 -0.0999994
      vertex 31 50 -0.0999994
    endloop
  endfacet
  facet normal 0 0 -1
    outer loop
      vertex 31 -50 -0.0999994
      vertex 33 50 -0.0999994
      vertex 33 -50 -0.0999994
    endloop
  endfacet
  facet normal -0 0 -1
    outer loop
      vertex 33 50 -0.0999994
      vertex 31 -50 -0.0999994
      vertex 31 50 -0.0999994
    endloop
  endfacet
  facet normal 0 -1 0
    outer loop
      vertex 31 -50 -0.0999994
      vertex 33 -50 0.0999994
      vertex 31 -50 0.0999994
    endloop
  endfacet
  facet normal 0 -1 -0
    outer loop
      vertex 33 -50 0.0999994
      vertex 31 -50 -0.0999994
      vertex 33 -50 -0.0999994
    endloop
  endfacet
  facet normal -1 0 0
    outer loop
      vertex 35 -50 -0.0999994
      vertex 35 50 0.0999994
      vertex 35 50 -0.0999994
    endloop
  endfacet
  facet normal -1 -0 0
    outer loop
      vertex 35 50 0.0999994
      vertex 35 -50 -0.0999994
      vertex 35 -50 0.0999994
    endloop
  endfacet
  facet normal -0 0 1
    outer loop
      vertex 35 50 0.0999994
      vertex 37 -50 0.0999994
      vertex 37 50 0.0999994
    endloop
  endfacet
  facet normal 0 0 1
    outer loop
      vertex 37 -50 0.0999994
      vertex 35 50 0.0999994
      vertex 35 -50 0.0999994
    endloop
  endfacet
  facet normal 1 -0 0
    outer loop
      vertex 37 -50 0.0999994
      vertex 37 50 -0.0999994
      vertex 37 50 0.0999994
    endloop
  endfacet
  facet normal 1 0 0
    outer loop
      vertex 37 50 -0.0999994
      vertex 37 -50 0.0999994
      vertex 37 -50 -0.0999994
    endloop
  endfacet
  facet normal 0 0 -1
    outer loop
      vertex 35 -50 -0.0999994
      vertex 37 50 -0.0999994
      vertex 37 -50 -0.0999994
    endloop
  endfacet
  facet normal -0 0 -1
    outer loop
      vertex 37 50 -0.0999994
      vertex 35 -50 -0.0999994
      vertex 35 50 -0.0999994
    endloop
  endfacet
  facet normal 0 -1 0
    outer loop
      vertex 35 -50 -0.0999994
      vertex 37 -50 0.0999994
      vertex 35 -50 0.0999994
    endloop
  endfacet
  facet normal 0 -1 -0
    outer loop
      vertex 37 -50 0.0999994
      vertex 35 -50 -0.0999994
      vertex 37 -50 -0.0999994
    endloop
  endfacet
  facet normal 0 1 -0
    outer loop
      vertex 37 50 -0.0999994
      vertex 35 50 0.0999994
      vertex 37 50 0.0999994
    endloop
  endfacet
  facet normal 0 1 0
    outer loop
      vertex 35 50 0.0999994
      vertex 37 50 -0.0999994
      vertex 35 50 -0.0999994
    endloop
  endfacet
  facet normal -1 0 0
    outer loop
      vertex 39 -50 -0.0999994
      vertex 39 50 0.0999994
      vertex 39 50 -0.0999994
    endloop
  endfacet
  facet normal -1 -0 0
    outer loop
      vertex 39 50 0.0999994
      vertex 39 -50 -0.0999994
      vertex 39 -50 0.0999994
    endloop
  endfacet
  facet normal -0 0 1
    outer loop
      vertex 39 50 0.0999994
      vertex 41 -50 0.0999994
      vertex 41 50 0.0999994
    endloop
  endfacet
  facet normal 0 0 1
    outer loop
      vertex 41 -50 0.0999994
      vertex 39 50 0.0999994
      vertex 39 -50 0.0999994
    endloop
  endfacet
  facet normal 1 -0 0
    outer loop
      vertex 41 -50 0.0999994
      vertex 41 50 -0.0999994
      vertex 41 50 0.0999994
    endloop
  endfacet
  facet normal 1 0 0
    outer loop
      vertex 41 50 -0.0999994
      vertex 41 -50 0.0999994
      vertex 41 -50 -0.0999994
    endloop
  endfacet
  facet normal 0 0 -1
    outer loop
      vertex 39 -50 -0.0999994
      vertex 41 50 -0.0999994
      vertex 41 -50 -0.0999994
    endloop
  endfacet
  facet normal -0 0 -1
    outer loop
      vertex 41 50 -0.0999994
      vertex 39 -50 -0.0999994
      vertex 39 50 -0.0999994
    endloop
  endfacet
  facet normal 0 -1 0
    outer loop
      vertex 39 -50 -0.0999994
      vertex 41 -50 0.0999994
      vertex 39 -50 0.0999994
    endloop
  endfacet
  facet normal 0 -1 -0
    outer loop
      vertex 41 -50 0.0999994
      vertex 39 -50 -0.0999994
      vertex 41 -50 -0.0999994
    endloop
  endfacet
  facet normal 0 1 -0
    outer loop
      vertex 41 50 -0.0999994
      vertex 39 50 0.0999994
      vertex 41 50 0.0999994
    endloop
  endfacet
  facet normal 0 1 0
    outer loop
      vertex 39 50 0.0999994
      vertex 41 50 -0.0999994
      vertex 39 50 -0.0999994
    endloop
  endfacet
  facet normal -1 0 0
    outer loop
      vertex 43 -50 -0.0999994
      vertex 43 50 0.0999994
      vertex 43 50 -0.0999994
    endloop
  endfacet
  facet normal -1 -0 0
    outer loop
      vertex 43 50 0.0999994
      vertex 43 -50 -0.0999994
      vertex 43 -50 0.0999994
    endloop
  endfacet
  facet normal -0 0 1
    outer loop
      vertex 43 50 0.0999994
      vertex 45 -50 0.0999994
      vertex 45 50 0.0999994
    endloop
  endfacet
  facet normal 0 0 1
    outer loop
      vertex 45 -50 0.0999994
      vertex 43 50 0.0999994
      vertex 43 -50 0.0999994
    endloop
  endfacet
  facet normal 1 -0 0
    outer loop
      vertex 45 -50 0.0999994
      vertex 45 50 -0.0999994
      vertex 45 50 0.0999994
    endloop
  endfacet
  facet normal 1 0 0
    outer loop
      vertex 45 50 -0.0999994
      vertex 45 -50 0.0999994
      vertex 45 -50 -0.0999994
    endloop
  endfacet
  facet normal 0 1 -0
    outer loop
      vertex 45 50 -0.0999994
      vertex 43 50 0.0999994
      vertex 45 50 0.0999994
    endloop
  endfacet
  facet normal 0 1 0
    outer loop
      vertex 43 50 0.0999994
      vertex 45 50 -0.0999994
      vertex 43 50 -0.0999994
    endloop
  endfacet
  facet normal 0 0 -1
    outer loop
      vertex 43 -50 -0.0999994
      vertex 45 50 -0.0999994
      vertex 45 -50 -0.0999994
    endloop
  endfacet
  facet normal -0 0 -1
    outer loop
      vertex 45 50 -0.0999994
      vertex 43 -50 -0.0999994
      vertex 43 50 -0.0999994
    endloop
  endfacet
  facet normal 0 -1 0
    outer loop
      vertex 43 -50 -0.0999994
      vertex 45 -50 0.0999994
      vertex 43 -50 0.0999994
    endloop
  endfacet
  facet normal 0 -1 -0
    outer loop
      vertex 45 -50 0.0999994
      vertex 43 -50 -0.0999994
      vertex 45 -50 -0.0999994
    endloop
  endfacet
  facet normal -1 0 0
    outer loop
      vertex 47 -50 -0.0999994
      vertex 47 50 0.0999994
      vertex 47 50 -0.0999994
    endloop
  endfacet
  facet normal -1 -0 0
    outer loop
      vertex 47 50 0.0999994
      vertex 47 -50 -0.0999994
      vertex 47 -50 0.0999994
    endloop
  endfacet
  facet normal -0 0 1
    outer loop
      vertex 47 50 0.0999994
      vertex 49 -50 0.0999994
      vertex 49 50 0.0999994
    endloop
  endfacet
  facet normal 0 0 1
    outer loop
      vertex 49 -50 0.0999994
      vertex 47 50 0.0999994
      vertex 47 -50 0.0999994
    endloop
  endfacet
  facet normal 1 -0 0
    outer loop
      vertex 49 -50 0.0999994
      vertex 49 50 -0.0999994
      vertex 49 50 0.0999994
    endloop
  endfacet
  facet normal 1 0 0
    outer loop
      vertex 49 50 -0.0999994
      vertex 49 -50 0.0999994
      vertex 49 -50 -0.0999994
    endloop
  endfacet
  facet normal 0 1 -0
    outer loop
      vertex 49 50 -0.0999994
      vertex 47 50 0.0999994
      vertex 49 50 0.0999994
    endloop
  endfacet
  facet normal 0 1 0
    outer loop
      vertex 47 50 0.0999994
      vertex 49 50 -0.0999994
      vertex 47 50 -0.0999994
    endloop
  endfacet
  facet normal 0 0 -1
    outer loop
      vertex 47 -50 -0.0999994
      vertex 49 50 -0.0999994
      vertex 49 -50 -0.0999994
    endloop
  endfacet
  facet normal -0 0 -1
    outer loop
      vertex 49 50 -0.0999994
      vertex 47 -50 -0.0999994
      vertex 47 50 -0.0999994
    endloop
  endfacet
  facet normal 0 -1 0
    outer loop
      vertex 47 -50 -0.0999994
      vertex 49 -50 0.0999994
      vertex 47 -50 0.0999994
    endloop
  endfacet
  facet normal 0 -1 -0
    outer loop
      vertex 49 -50 0.0999994
      vertex 47 -50 -0.0999994
      vertex 49 -50 -0.0999994
    endloop
  endfacet
  facet normal -1 0 0
    outer loop
      vertex 51 -50 -0.0999994
      vertex 51 50 0.0999994
      vertex 51 50 -0.0999994
    endloop
  endfacet
  facet normal -1 -0 0
    outer loop
      vertex 51 50 0.0999994
      vertex 51 -50 -0.0999994
      vertex 51 -50 0.0999994
    endloop
  endfacet
  facet normal -0 0 1
    outer loop
      vertex 51 50 0.0999994
      vertex 53 -50 0.0999994
      vertex 53 50 0.0999994
    endloop
  endfacet
  facet normal 0 0 1
    outer loop
      vertex 53 -50 0.0999994
      vertex 51 50 0.0999994
      vertex 51 -50 0.0999994
    endloop
  endfacet
  facet normal 1 -0 0
    outer loop
      vertex 53 -50 0.0999994
      vertex 53 50 -0.0999994
      vertex 53 50 0.0999994
    endloop
  endfacet
  facet normal 1 0 0
    outer loop
      vertex 53 50 -0.0999994
      vertex 53 -50 0.0999994
      vertex 53 -50 -0.0999994
    endloop
  endfacet
  facet normal 0 0 -1
    outer loop
      vertex 51 -50 -0.0999994
      vertex 53 50 -0.0999994
      vertex 53 -50 -0.0999994
    endloop
  endfacet
  facet normal -0 0 -1
    outer loop
      vertex 53 50 -0.0999994
      vertex 51 -50 -0.0999994
      vertex 51 50 -0.0999994
    endloop
  endfacet
  facet normal 0 -1 0
    outer loop
      vertex 51 -50 -0.0999994
      vertex 53 -50 0.0999994
      vertex 51 -50 0.0999994
    endloop
  endfacet
  facet normal 0 -1 -0
    outer loop
      vertex 53 -50 0.0999994
      vertex 51 -50 -0.0999994
      vertex 53 -50 -0.0999994
    endloop
  endfacet
  facet normal 0 1 -0
    outer loop
      vertex 53 50 -0.0999994
      vertex 51 50 0.0999994
      vertex 53 50 0.0999994
    endloop
  endfacet
  facet normal 0 1 0
    outer loop
      vertex 51 50 0.0999994
      vertex 53 50 -0.0999994
      vertex 51 50 -0.0999994
    endloop
  endfacet
  facet normal -1 0 0
    outer loop
      vertex 55 -50 -0.0999994
      vertex 55 50 0.0999994
      vertex 55 50 -0.0999994
    endloop
  endfacet
  facet normal -1 -0 0
    outer loop
      vertex 55 50 0.0999994
      vertex 55 -50 -0.0999994
      vertex 55 -50 0.0999994
    endloop
  endfacet
  facet normal -0 0 1
    outer loop
      vertex 55 50 0.0999994
      vertex 57 -50 0.0999994
      vertex 57 50 0.0999994
    endloop
  endfacet
  facet normal 0 0 1
    outer loop
      vertex 57 -50 0.0999994
      vertex 55 50 0.0999994
      vertex 55 -50 0.0999994
    endloop
  endfacet
  facet normal 1 -0 0
    outer loop
      vertex 57 -50 0.0999994
      vertex 57 50 -0.0999994
      vertex 57 50 0.0999994
    endloop
  endfacet
  facet normal 1 0 0
    outer loop
      vertex 57 50 -0.0999994
      vertex 57 -50 0.0999994
      vertex 57 -50 -0.0999994
    endloop
  endfacet
  facet normal 0 0 -1
    outer loop
      vertex 55 -50 -0.0999994
      vertex 57 50 -0.0999994
      vertex 57 -50 -0.0999994
    endloop
  endfacet
  facet normal -0 0 -1
    outer loop
      vertex 57 50 -0.0999994
      vertex 55 -50 -0.0999994
      vertex 55 50 -0.0999994
    endloop
  endfacet
  facet normal 0 -1 0
    outer loop
      vertex 55 -50 -0.0999994
      vertex 57 -50 0.0999994
      vertex 55 -50 0.0999994
    endloop
  endfacet
  facet normal 0 -1 -0
    outer loop
      vertex 57 -50 0.0999994
      vertex 55 -50 -0.0999994
      vertex 57 -50 -0.0999994
    endloop
  endfacet
  facet normal 0 1 -0
    outer loop
      vertex 57 50 -0.0999994
      vertex 55 50 0.0999994
      vertex 57 50 0.0999994
    endloop
  endfacet
  facet normal 0 1 0
    outer loop
      vertex 55 50 0.0999994
      vertex 57 50 -0.0999994
      vertex 55 50 -0.0999994
    endloop
  endfacet
  facet normal -1 0 0
    outer loop
      vertex 59 -50 -0.0999994
      vertex 59 50 0.0999994
      vertex 59 50 -0.0999994
    endloop
  endfacet
  facet normal -1 -0 0
    outer loop
      vertex 59 50 0.0999994
      vertex 59 -50 -0.0999994
      vertex 59 -50 0.0999994
    endloop
  endfacet
  facet normal -0 0 1
    outer loop
      vertex 59 50 0.0999994
      vertex 61 -50 0.0999994
      vertex 61 50 0.0999994
    endloop
  endfacet
  facet normal 0 0 1
    outer loop
      vertex 61 -50 0.0999994
      vertex 59 50 0.0999994
      vertex 59 -50 0.0999994
    endloop
  endfacet
  facet normal 1 -0 0
    outer loop
      vertex 61 -50 0.0999994
      vertex 61 50 -0.0999994
      vertex 61 50 0.0999994
    endloop
  endfacet
  facet normal 1 0 0
    outer loop
      vertex 61 50 -0.0999994
      vertex 61 -50 0.0999994
      vertex 61 -50 -0.0999994
    endloop
  endfacet
  facet normal 0 0 -1
    outer loop
      vertex 59 -50 -0.0999994
      vertex 61 50 -0.0999994
      vertex 61 -50 -0.0999994
    endloop
  endfacet
  facet normal -0 0 -1
    outer loop
      vertex 61 50 -0.0999994
      vertex 59 -50 -0.0999994
      vertex 59 50 -0.0999994
    endloop
  endfacet
  facet normal 0 -1 0
    outer loop
      vertex 59 -50 -0.0999994
      vertex 61 -50 0.0999994
      vertex 59 -50 0.0999994
    endloop
  endfacet
  facet normal 0 -1 -0
    outer loop
      vertex 61 -50 0.0999994
      vertex 59 -50 -0.0999994
      vertex 61 -50 -0.0999994
    endloop
  endfacet
  facet normal 0 1 -0
    outer loop
      vertex 61 50 -0.0999994
      vertex 59 50 0.0999994
      vertex 61 50 0.0999994
    endloop
  endfacet
  facet normal 0 1 0
    outer loop
      vertex 59 50 0.0999994
      vertex 61 50 -0.0999994
      vertex 59 50 -0.0999994
    endloop
  endfacet
  facet normal -1 0 0
    outer loop
      vertex 63 -50 -0.0999994
      vertex 63 50 0.0999994
      vertex 63 50 -0.0999994
    endloop
  endfacet
  facet normal -1 -0 0
    outer loop
      vertex 63 50 0.0999994
      vertex 63 -50 -0.0999994
      vertex 63 -50 0.0999994
    endloop
  endfacet
  facet normal -0 0 1
    outer loop
      vertex 63 50 0.0999994
      vertex 65 -50 0.0999994
      vertex 65 50 0.0999994
    endloop
  endfacet
  facet normal 0 0 1
    outer loop
      vertex 65 -50 0.0999994
      vertex 63 50 0.0999994
      vertex 63 -50 0.0999994
    endloop
  endfacet
  facet normal 1 -0 0
    outer loop
      vertex 65 -50 0.0999994
      vertex 65 50 -0.0999994
      vertex 65 50 0.0999994
    endloop
  endfacet
  facet normal 1 0 0
    outer loop
      vertex 65 50 -0.0999994
      vertex 65 -50 0.0999994
      vertex 65 -50 -0.0999994
    endloop
  endfacet
  facet normal 0 0 -1
    outer loop
      vertex 63 -50 -0.0999994
      vertex 65 50 -0.0999994
      vertex 65 -50 -0.0999994
    endloop
  endfacet
  facet normal -0 0 -1
    outer loop
      vertex 65 50 -0.0999994
      vertex 63 -50 -0.0999994
      vertex 63 50 -0.0999994
    endloop
  endfacet
  facet normal 0 -1 0
    outer loop
      vertex 63 -50 -0.0999994
      vertex 65 -50 0.0999994
      vertex 63 -50 0.0999994
    endloop
  endfacet
  facet normal 0 -1 -0
    outer loop
      vertex 65 -50 0.0999994
      vertex 63 -50 -0.0999994
      vertex 65 -50 -0.0999994
    endloop
  endfacet
  facet normal 0 1 -0
    outer loop
      vertex 65 50 -0.0999994
      vertex 63 50 0.0999994
      vertex 65 50 0.0999994
    endloop
  endfacet
  facet normal 0 1 0
    outer loop
      vertex 63 50 0.0999994
      vertex 65 50 -0.0999994
      vertex 63 50 -0.0999994
    endloop
  endfacet
  facet normal -1 0 0
    outer loop
      vertex 67 -50 -0.0999994
      vertex 67 50 0.0999994
      vertex 67 50 -0.0999994
    endloop
  endfacet
  facet normal -1 -0 0
    outer loop
      vertex 67 50 0.0999994
      vertex 67 -50 -0.0999994
      vertex 67 -50 0.0999994
    endloop
  endfacet
  facet normal -0 0 1
    outer loop
      vertex 67 50 0.0999994
      vertex 69 -50 0.0999994
      vertex 69 50 0.0999994
    endloop
  endfacet
  facet normal 0 0 1
    outer loop
      vertex 69 -50 0.0999994
      vertex 67 50 0.0999994
      vertex 67 -50 0.0999994
    endloop
  endfacet
  facet normal 1 -0 0
    outer loop
      vertex 69 -50 0.0999994
      vertex 69 50 -0.0999994
      vertex 69 50 0.0999994
    endloop
  endfacet
  facet normal 1 0 0
    outer loop
      vertex 69 50 -0.0999994
      vertex 69 -50 0.0999994
      vertex 69 -50 -0.0999994
    endloop
  endfacet
  facet normal 0 1 -0
    outer loop
      vertex 69 50 -0.0999994
      vertex 67 50 0.0999994
      vertex 69 50 0.0999994
    endloop
  endfacet
  facet normal 0 1 0
    outer loop
      vertex 67 50 0.0999994
      vertex 69 50 -0.0999994
      vertex 67 50 -0.0999994
    endloop
  endfacet
  facet normal 0 0 -1
    outer loop
      vertex 67 -50 -0.0999994
      vertex 69 50 -0.0999994
      vertex 69 -50 -0.0999994
    endloop
  endfacet
  facet normal -0 0 -1
    outer loop
      vertex 69 50 -0.0999994
      vertex 67 -50 -0.0999994
      vertex 67 50 -0.0999994
    endloop
  endfacet
  facet normal 0 -1 0
    outer loop
      vertex 67 -50 -0.0999994
      vertex 69 -50 0.0999994
      vertex 67 -50 0.0999994
    endloop
  endfacet
  facet normal 0 -1 -0
    outer loop
      vertex 69 -50 0.0999994
      vertex 67 -50 -0.0999994
      vertex 69 -50 -0.0999994
    endloop
  endfacet
  facet normal -1 0 0
    outer loop
      vertex 71 -50 -0.0999994
      vertex 71 50 0.0999994
      vertex 71 50 -0.0999994
    endloop
  endfacet
  facet normal -1 -0 0
    outer loop
      vertex 71 50 0.0999994
      vertex 71 -50 -0.0999994
      vertex 71 -50 0.0999994
    endloop
  endfacet
  facet normal -0 0 1
    outer loop
      vertex 71 50 0.0999994
      vertex 73 -50 0.0999994
      vertex 73 50 0.0999994
    endloop
  endfacet
  facet normal 0 0 1
    outer loop
      vertex 73 -50 0.0999994
      vertex 71 50 0.0999994
      vertex 71 -50 0.0999994
    endloop
  endfacet
  facet normal 1 -0 0
    outer loop
      vertex 73 -50 0.0999994
      vertex 73 50 -0.0999994
      vertex 73 50 0.0999994
    endloop
  endfacet
  facet normal 1 0 0
    outer loop
      vertex 73 50 -0.0999994
      vertex 73 -50 0.0999994
      vertex 73 -50 -0.0999994
    endloop
  endfacet
  facet normal 0 1 -0
    outer loop
      vertex 73 50 -0.0999994
      vertex 71 50 0.0999994
      vertex 73 50 0.0999994
    endloop
  endfacet
  facet normal 0 1 0
    outer loop
      vertex 71 50 0.0999994
      vertex 73 50 -0.0999994
      vertex 71 50 -0.0999994
    endloop
  endfacet
  facet normal 0 0 -1
    outer loop
      vertex 71 -50 -0.0999994
      vertex 73 50 -0.0999994
      vertex 73 -50 -0.0999994
    endloop
  endfacet
  facet normal -0 0 -1
    outer loop
      vertex 73 50 -0.0999994
      vertex 71 -50 -0.0999994
      vertex 71 50 -0.0999994
    endloop
  endfacet
  facet normal 0 -1 0
    outer loop
      vertex 71 -50 -0.0999994
      vertex 73 -50 0.0999994
      vertex 71 -50 0.0999994
    endloop
  endfacet
  facet normal 0 -1 -0
    outer loop
      vertex 73 -50 0.0999994
      vertex 71 -50 -0.0999994
      vertex 73 -50 -0.0999994
    endloop
  endfacet
  facet normal -1 0 0
    outer loop
      vertex 75 -50 -0.0999994
      vertex 75 50 0.0999994
      vertex 75 50 -0.0999994
    endloop
  endfacet
  facet normal -1 -0 0
    outer loop
      vertex 75 50 0.0999994
      vertex 75 -50 -0.0999994
      vertex 75 -50 0.0999994
    endloop
  endfacet
  facet normal -0 0 1
    outer loop
      vertex 75 50 0.0999994
      vertex 77 -50 0.0999994
      vertex 77 50 0.0999994
    endloop
  endfacet
  facet normal 0 0 1
    outer loop
      vertex 77 -50 0.0999994
      vertex 75 50 0.0999994
      vertex 75 -50 0.0999994
    endloop
  endfacet
  facet normal 1 -0 0
    outer loop
      vertex 77 -50 0.0999994
      vertex 77 50 -0.0999994
      vertex 77 50 0.0999994
    endloop
  endfacet
  facet normal 1 0 0
    outer loop
      vertex 77 50 -0.0999994
      vertex 77 -50 0.0999994
      vertex 77 -50 -0.0999994
    endloop
  endfacet
  facet normal 0 1 -0
    outer loop
      vertex 77 50 -0.0999994
      vertex 75 50 0.0999994
      vertex 77 50 0.0999994
    endloop
  endfacet
  facet normal 0 1 0
    outer loop
      vertex 75 50 0.0999994
      vertex 77 50 -0.0999994
      vertex 75 50 -0.0999994
    endloop
  endfacet
  facet normal 0 0 -1
    outer loop
      vertex 75 -50 -0.0999994
      vertex 77 50 -0.0999994
      vertex 77 -50 -0.0999994
    endloop
  endfacet
  facet normal -0 0 -1
    outer loop
      vertex 77 50 -0.0999994
      vertex 75 -50 -0.0999994
      vertex 75 50 -0.0999994
    endloop
  endfacet
  facet normal 0 -1 0
    outer loop
      vertex 75 -50 -0.0999994
      vertex 77 -50 0.0999994
      vertex 75 -50 0.0999994
    endloop
  endfacet
  facet normal 0 -1 -0
    outer loop
      vertex 77 -50 0.0999994
      vertex 75 -50 -0.0999994
      vertex 77 -50 -0.0999994
    endloop
  endfacet
  facet normal -1 0 0
    outer loop
      vertex 79 -50 -0.0999994
      vertex 79 50 0.0999994
      vertex 79 50 -0.0999994
    endloop
  endfacet
  facet normal -1 -0 0
    outer loop
      vertex 79 50 0.0999994
      vertex 79 -50 -0.0999994
      vertex 79 -50 0.0999994
    endloop
  endfacet
  facet normal -0 0 1
    outer loop
      vertex 79 50 0.0999994
      vertex 81 -50 0.0999994
      vertex 81 50 0.0999994
    endloop
  endfacet
  facet normal 0 0 1
    outer loop
      vertex 81 -50 0.0999994
      vertex 79 50 0.0999994
      vertex 79 -50 0.0999994
    endloop
  endfacet
  facet normal 1 -0 0
    outer loop
      vertex 81 -50 0.0999994
      vertex 81 50 -0.0999994
      vertex 81 50 0.0999994
    endloop
  endfacet
  facet normal 1 0 0
    outer loop
      vertex 81 50 -0.0999994
      vertex 81 -50 0.0999994
      vertex 81 -50 -0.0999994
    endloop
  endfacet
  facet normal 0 0 -1
    outer loop
      vertex 79 -50 -0.0999994
      vertex 81 50 -0.0999994
      vertex 81 -50 -0.0999994
    endloop
  endfacet
  facet normal -0 0 -1
    outer loop
      vertex 81 50 -0.0999994
      vertex 79 -50 -0.0999994
      vertex 79 50 -0.0999994
    endloop
  endfacet
  facet normal 0 -1 0
    outer loop
      vertex 79 -50 -0.0999994
      vertex 81 -50 0.0999994
      vertex 79 -50 0.0999994
    endloop
  endfacet
  facet normal 0 -1 -0
    outer loop
      vertex 81 -50 0.0999994
      vertex 79 -50 -0.0999994
      vertex 81 -50 -0.0999994
    endloop
  endfacet
  facet normal 0 1 -0
    outer loop
      vertex 81 50 -0.0999994
      vertex 79 50 0.0999994
      vertex 81 50 0.0999994
    endloop
  endfacet
  facet normal 0 1 0
    outer loop
      vertex 79 50 0.0999994
      vertex 81 50 -0.0999994
      vertex 79 50 -0.0999994
    endloop
  endfacet
  facet normal -1 0 0
    outer loop
      vertex 83 -50 -0.0999994
      vertex 83 50 0.0999994
      vertex 83 50 -0.0999994
    endloop
  endfacet
  facet normal -1 -0 0
    outer loop
      vertex 83 50 0.0999994
      vertex 83 -50 -0.0999994
      vertex 83 -50 0.0999994
    endloop
  endfacet
  facet normal -0 0 1
    outer loop
      vertex 83 50 0.0999994
      vertex 85 -50 0.0999994
      vertex 85 50 0.0999994
    endloop
  endfacet
  facet normal 0 0 1
    outer loop
      vertex 85 -50 0.0999994
      vertex 83 50 0.0999994
      vertex 83 -50 0.0999994
    endloop
  endfacet
  facet normal 1 -0 0
    outer loop
      vertex 85 -50 0.0999994
      vertex 85 50 -0.0999994
      vertex 85 50 0.0999994
    endloop
  endfacet
  facet normal 1 0 0
    outer loop
      vertex 85 50 -0.0999994
      vertex 85 -50 0.0999994
      vertex 85 -50 -0.0999994
    endloop
  endfacet
  facet normal 0 1 -0
    outer loop
      vertex 85 50 -0.0999994
      vertex 83 50 0.0999994
      vertex 85 50 0.0999994
    endloop
  endfacet
  facet normal 0 1 0
    outer loop
      vertex 83 50 0.0999994
      vertex 85 50 -0.0999994
      vertex 83 50 -0.0999994
    endloop
  endfacet
  facet normal 0 0 -1
    outer loop
      vertex 83 -50 -0.0999994
      vertex 85 50 -0.0999994
      vertex 85 -50 -0.0999994
    endloop
  endfacet
  facet normal -0 0 -1
    outer loop
      vertex 85 50 -0.0999994
      vertex 83 -50 -0.0999994
      vertex 83 50 -0.0999994
    endloop
  endfacet
  facet normal 0 -1 0
    outer loop
      vertex 83 -50 -0.0999994
      vertex 85 -50 0.0999994
      vertex 83 -50 0.0999994
    endloop
  endfacet
  facet normal 0 -1 -0
    outer loop
      vertex 85 -50 0.0999994
      vertex 83 -50 -0.0999994
      vertex 85 -50 -0.0999994
    endloop
  endfacet
  facet normal -1 0 0
    outer loop
      vertex 87 -50 -0.0999994
      vertex 87 50 0.0999994
      vertex 87 50 -0.0999994
    endloop
  endfacet
  facet normal -1 -0 0
    outer loop
      vertex 87 50 0.0999994
      vertex 87 -50 -0.0999994
      vertex 87 -50 0.0999994
    endloop
  endfacet
  facet normal -0 0 1
    outer loop
      vertex 87 50 0.0999994
      vertex 89 -50 0.0999994
      vertex 89 50 0.0999994
    endloop
  endfacet
  facet normal 0 0 1
    outer loop
      vertex 89 -50 0.0999994
      vertex 87 50 0.0999994
      vertex 87 -50 0.0999994
    endloop
  endfacet
  facet normal 1 -0 0
    outer loop
      vertex 89 -50 0.0999994
      vertex 89 50 -0.0999994
      vertex 89 50 0.0999994
    endloop
  endfacet
  facet normal 1 0 0
    outer loop
      vertex 89 50 -0.0999994
      vertex 89 -50 0.0999994
      vertex 89 -50 -0.0999994
    endloop
  endfacet
  facet normal 0 0 -1
    outer loop
      vertex 87 -50 -0.0999994
      vertex 89 50 -0.0999994
      vertex 89 -50 -0.0999994
    endloop
  endfacet
  facet normal -0 0 -1
    outer loop
      vertex 89 50 -0.0999994
      vertex 87 -50 -0.0999994
      vertex 87 50 -0.0999994
    endloop
  endfacet
  facet normal 0 -1 0
    outer loop
      vertex 87 -50 -0.0999994
      vertex 89 -50 0.0999994
      vertex 87 -50 0.0999994
    endloop
  endfacet
  facet normal 0 -1 -0
    outer loop
      vertex 89 -50 0.0999994
      vertex 87 -50 -0.0999994
      vertex 89 -50 -0.0999994
    endloop
  endfacet
  facet normal 0 1 -0
    outer loop
      vertex 89 50 -0.0999994
      vertex 87 50 0.0999994
      vertex 89 50 0.0999994
    endloop
  endfacet
  facet normal 0 1 0
    outer loop
      vertex 87 50 0.0999994
      vertex 89 50 -0.0999994
      vertex 87 50 -0.0999994
    endloop
  endfacet
  facet normal -1 0 0
    outer loop
      vertex 91 -50 -0.0999994
      vertex 91 50 0.0999994
      vertex 91 50 -0.0999994
    endloop
  endfacet
  facet normal -1 -0 0
    outer loop
      vertex 91 50 0.0999994
      vertex 91 -50 -0.0999994
      vertex 91 -50 0.0999994
    endloop
  endfacet
  facet normal -0 0 1
    outer loop
      vertex 91 50 0.0999994
      vertex 93 -50 0.0999994
      vertex 93 50 0.0999994
    endloop
  endfacet
  facet normal 0 0 1
    outer loop
      vertex 93 -50 0.0999994
      vertex 91 50 0.0999994
      vertex 91 -50 0.0999994
    endloop
  endfacet
  facet normal 1 -0 0
    outer loop
      vertex 93 -50 0.0999994
      vertex 93 50 -0.0999994
      vertex 93 50 0.0999994
    endloop
  endfacet
  facet normal 1 0 0
    outer loop
      vertex 93 50 -0.0999994
      vertex 93 -50 0.0999994
      vertex 93 -50 -0.0999994
    endloop
  endfacet
  facet normal 0 0 -1
    outer loop
      vertex 91 -50 -0.0999994
      vertex 93 50 -0.0999994
      vertex 93 -50 -0.0999994
    endloop
  endfacet
  facet normal -0 0 -1
    outer loop
      vertex 93 50 -0.0999994
      vertex 91 -50 -0.0999994
      vertex 91 50 -0.0999994
    endloop
  endfacet
  facet normal 0 -1 0
    outer loop
      vertex 91 -50 -0.0999994
      vertex 93 -50 0.0999994
      vertex 91 -50 0.0999994
    endloop
  endfacet
  facet normal 0 -1 -0
    outer loop
      vertex 93 -50 0.0999994
      vertex 91 -50 -0.0999994
      vertex 93 -50 -0.0999994
    endloop
  endfacet
  facet normal 0 1 -0
    outer loop
      vertex 93 50 -0.0999994
      vertex 91 50 0.0999994
      vertex 93 50 0.0999994
    endloop
  endfacet
  facet normal 0 1 0
    outer loop
      vertex 91 50 0.0999994
      vertex 93 50 -0.0999994
      vertex 91 50 -0.0999994
    endloop
  endfacet
  facet normal -1 0 0
    outer loop
      vertex 95 -50 -0.0999994
      vertex 95 50 0.0999994
      vertex 95 50 -0.0999994
    endloop
  endfacet
  facet normal -1 -0 0
    outer loop
      vertex 95 50 0.0999994
      vertex 95 -50 -0.0999994
      vertex 95 -50 0.0999994
    endloop
  endfacet
  facet normal -0 0 1
    outer loop
      vertex 95 50 0.0999994
      vertex 97 -50 0.0999994
      vertex 97 50 0.0999994
    endloop
  endfacet
  facet normal 0 0 1
    outer loop
      vertex 97 -50 0.0999994
      vertex 95 50 0.0999994
      vertex 95 -50 0.0999994
    endloop
  endfacet
  facet normal 1 -0 0
    outer loop
      vertex 97 -50 0.0999994
      vertex 97 50 -0.0999994
      vertex 97 50 0.0999994
    endloop
  endfacet
  facet normal 1 0 0
    outer loop
      vertex 97 50 -0.0999994
      vertex 97 -50 0.0999994
      vertex 97 -50 -0.0999994
    endloop
  endfacet
  facet normal 0 0 -1
    outer loop
      vertex 95 -50 -0.0999994
      vertex 97 50 -0.0999994
      vertex 97 -50 -0.0999994
    endloop
  endfacet
  facet normal -0 0 -1
    outer loop
      vertex 97 50 -0.0999994
      vertex 95 -50 -0.0999994
      vertex 95 50 -0.0999994
    endloop
  endfacet
  facet normal 0 -1 0
    outer loop
      vertex 95 -50 -0.0999994
      vertex 97 -50 0.0999994
      vertex 95 -50 0.0999994
    endloop
  endfacet
  facet normal 0 -1 -0
    outer loop
      vertex 97 -50 0.0999994
      vertex 95 -50 -0.0999994
      vertex 97 -50 -0.0999994
    endloop
  endfacet
  facet normal 0 1 -0
    outer loop
      vertex 97 50 -0.0999994
      vertex 95 50 0.0999994
      vertex 97 50 0.0999994
    endloop
  endfacet
  facet normal 0 1 0
    outer loop
      vertex 95 50 0.0999994
      vertex 97 50 -0.0999994
      vertex 95 50 -0.0999994
    endloop
  endfacet
endsolid OpenSCAD_Model
