solid OpenSCAD_Model
  facet normal -1 0 0
    outer loop
      vertex -40 -40 -0.0999994
      vertex -40 40 0.0999994
      vertex -40 40 -0.0999994
    endloop
  endfacet
  facet normal -1 -0 0
    outer loop
      vertex -40 40 0.0999994
      vertex -40 -40 -0.0999994
      vertex -40 -40 0.0999994
    endloop
  endfacet
  facet normal 0 0 1
    outer loop
      vertex 40 40 0.0999994
      vertex 39 39 0.0999994
      vertex 40 -40 0.0999994
    endloop
  endfacet
  facet normal 0 0 1
    outer loop
      vertex 40 40 0.0999994
      vertex -39 39 0.0999994
      vertex 39 39 0.0999994
    endloop
  endfacet
  facet normal 0 0 1
    outer loop
      vertex -39 39 0.0999994
      vertex -40 40 0.0999994
      vertex -39 -39 0.0999994
    endloop
  endfacet
  facet normal -0 0 1
    outer loop
      vertex -40 40 0.0999994
      vertex -39 39 0.0999994
      vertex 40 40 0.0999994
    endloop
  endfacet
  facet normal -0 0 1
    outer loop
      vertex 39 -39 0.0999994
      vertex 40 -40 0.0999994
      vertex 39 39 0.0999994
    endloop
  endfacet
  facet normal -0 0 1
    outer loop
      vertex -39 -39 0.0999994
      vertex 40 -40 0.0999994
      vertex 39 -39 0.0999994
    endloop
  endfacet
  facet normal 0 0 1
    outer loop
      vertex -39 -39 0.0999994
      vertex -40 -40 0.0999994
      vertex 40 -40 0.0999994
    endloop
  endfacet
  facet normal 0 0 1
    outer loop
      vertex -40 -40 0.0999994
      vertex -39 -39 0.0999994
      vertex -40 40 0.0999994
    endloop
  endfacet
  facet normal 1 -0 0
    outer loop
      vertex 40 -40 0.0999994
      vertex 40 40 -0.0999994
      vertex 40 40 0.0999994
    endloop
  endfacet
  facet normal 1 0 0
    outer loop
      vertex 40 40 -0.0999994
      vertex 40 -40 0.0999994
      vertex 40 -40 -0.0999994
    endloop
  endfacet
  facet normal 0 1 -0
    outer loop
      vertex 40 40 -0.0999994
      vertex -40 40 0.0999994
      vertex 40 40 0.0999994
    endloop
  endfacet
  facet normal 0 1 0
    outer loop
      vertex -40 40 0.0999994
      vertex 40 40 -0.0999994
      vertex -40 40 -0.0999994
    endloop
  endfacet
  facet normal 0 0 -1
    outer loop
      vertex 40 -40 -0.0999994
      vertex 39 -39 -0.0999994
      vertex 40 40 -0.0999994
    endloop
  endfacet
  facet normal 0 0 -1
    outer loop
      vertex 40 -40 -0.0999994
      vertex -39 -39 -0.0999994
      vertex 39 -39 -0.0999994
    endloop
  endfacet
  facet normal -0 0 -1
    outer loop
      vertex -39 -39 -0.0999994
      vertex -40 -40 -0.0999994
      vertex -39 39 -0.0999994
    endloop
  endfacet
  facet normal 0 0 -1
    outer loop
      vertex -40 -40 -0.0999994
      vertex -39 -39 -0.0999994
      vertex 40 -40 -0.0999994
    endloop
  endfacet
  facet normal 0 0 -1
    outer loop
      vertex 39 39 -0.0999994
      vertex 40 40 -0.0999994
      vertex 39 -39 -0.0999994
    endloop
  endfacet
  facet normal 0 0 -1
    outer loop
      vertex -39 39 -0.0999994
      vertex 40 40 -0.0999994
      vertex 39 39 -0.0999994
    endloop
  endfacet
  facet normal 0 0 -1
    outer loop
      vertex -39 39 -0.0999994
      vertex -40 40 -0.0999994
      vertex 40 40 -0.0999994
    endloop
  endfacet
  facet normal 0 0 -1
    outer loop
      vertex -40 40 -0.0999994
      vertex -39 39 -0.0999994
      vertex -40 -40 -0.0999994
    endloop
  endfacet
  facet normal 0 -1 0
    outer loop
      vertex -40 -40 -0.0999994
      vertex 40 -40 0.0999994
      vertex -40 -40 0.0999994
    endloop
  endfacet
  facet normal 0 -1 -0
    outer loop
      vertex 40 -40 0.0999994
      vertex -40 -40 -0.0999994
      vertex 40 -40 -0.0999994
    endloop
  endfacet
  facet normal 1 -0 0
    outer loop
      vertex -39 -39 0.0999994
      vertex -39 39 -0.0999994
      vertex -39 39 0.0999994
    endloop
  endfacet
  facet normal 1 0 0
    outer loop
      vertex -39 39 -0.0999994
      vertex -39 -39 0.0999994
      vertex -39 -39 -0.0999994
    endloop
  endfacet
  facet normal -1 0 0
    outer loop
      vertex 39 -39 -0.0999994
      vertex 39 39 0.0999994
      vertex 39 39 -0.0999994
    endloop
  endfacet
  facet normal -1 -0 0
    outer loop
      vertex 39 39 0.0999994
      vertex 39 -39 -0.0999994
      vertex 39 -39 0.0999994
    endloop
  endfacet
  facet normal 0 1 -0
    outer loop
      vertex 39 -39 -0.0999994
      vertex -39 -39 0.0999994
      vertex 39 -39 0.0999994
    endloop
  endfacet
  facet normal 0 1 0
    outer loop
      vertex -39 -39 0.0999994
      vertex 39 -39 -0.0999994
      vertex -39 -39 -0.0999994
    endloop
  endfacet
  facet normal 0 -1 0
    outer loop
      vertex -39 39 -0.0999994
      vertex 39 39 0.0999994
      vertex -39 39 0.0999994
    endloop
  endfacet
  facet normal 0 -1 -0
    outer loop
      vertex 39 39 0.0999994
      vertex -39 39 -0.0999994
      vertex 39 39 -0.0999994
    endloop
  endfacet
endsolid OpenSCAD_Model
